<svg xmlns="http://www.w3.org/2000/svg" viewBox="0 0 64 64">
  <!-- 叶片 -->
  <path d="M32 8 C40 8 52 16 52 26 C52 36 42 46 32 56 C22 46 12 36 12 26 C12 16 24 8 32 8Z" fill="#8B7355" opacity="0.15"/>
  <!-- 叶脉主干 -->
  <path d="M32 12 L32 52" stroke="#8B7355" stroke-width="1.8" stroke-linecap="round"/>
  <!-- 叶脉分支 -->
  <path d="M32 22 C38 18 46 16 52 18" stroke="#8B7355" stroke-width="1.4" stroke-linecap="round"/>
  <path d="M32 30 C26 28 18 26 12 28" stroke="#8B7355" stroke-width="1.4" stroke-linecap="round"/>
  <path d="M32 38 C38 36 42 34 48 36" stroke="#8B7355" stroke-width="1.3" stroke-linecap="round"/>
  <path d="M32 16 C28 12 22 10 18 12" stroke="#8B7355" stroke-width="1.2" stroke-linecap="round"/>
</svg>
